<?xml version='1.0' encoding='utf-8'?>
<svg xmlns="http://www.w3.org/2000/svg" id="Layer_1" data-name="Layer 1" version="1.1" viewBox="0 0 812.2 1000.8">
  <defs>
    <style>
      .cls-1 {
        stroke: #010101;
        stroke-miterlimit: 10;
      }

      .cls-1, .cls-2 {
        fill: none;
      }

      .cls-2 {
        stroke: red;
        stroke-linecap: round;
        stroke-linejoin: round;
        stroke-width: 1.9px;
      }
    </style>
  </defs>
  <path class="cls-1" d="M474.1,77.6l13.5,18.4s-.7,1.3-.5,1.7c.2.4,2,5.6,16,8.1,14,2.6,14.4,8.4,14.4,8.4l6.8,8s1.4,1.9,1.4,4.3-.7,8.6-1.4,10-2.2,3.5-2.9,4.6c-.8,1.1-1.4,2.7-1.4,3.5s-1.9,4.1-2.5,4.9c-.6.7-8.3,8.8-8.3,8.8,0,0-4.6,3.6-5.4,3.9-.8.2-2.9.9-4.4,1.2s-4.6,1.1-6.1,1.4c-1.6.3-3.2.4-3.6.7-.5.3-1,.6-1.3.6s-4.8.1-5.4,0-1.1-.6-1.5-.6-9.2.8-10.9.5c-1.7-.4-3.9-1.2-4.9-1.5s-5.4-.7-6.2-1.2c-.8-.4-5.8-2.9-7.5-5.4-1.9-2.2-3.3-3.4-3.3-3.4l-.2-1.1s-2.9-3.1-2.7-7.2c.2-4.1,4.6-14.2,4.6-14.2,0,0,1.8-4.5,2.3-4.9.5-.3,1.4-1,1.4-1v-1.8l1.4-1.4s.2-4.3,0-4.9-1.2-3.4-1.8-3.5c-.6-.2-2.6,2.8-2.8,3-.2.2-1.8,3-2.7,3.9-.8.8-2,2.2-2,2.2,0,0-.7-2.2-1.4-2.2s-3,.2-3.3.3-5.3.4-6.2.3c-.8,0-3.7-.9-4.4-.9s-5.1,0-5.7-.3c-.6-.2-2.4-.9-7.7-5.4-5.3-4.6-6.1-5.4-8-5.7-1.8-.3-3.2-.7-3.6-.5-.4,0-.8.6-1.6.3-.8-.3-3-1.5-3.9-1.6-.9-.2-2.4-.5-3.8.5-.9-1.3-2.9-5.3-2.9-6.1s-1.7-6.5,0-9.6,6.8-5.9,7.7-6.2c.9-.3,6.4-3.3,7.7-4,1.2-.8,4.7-3.8,6.5-4.2,1.8-.4,5.6-1.5,7-1.7s4.8-2,7-1.9c2.1,0,6-.6,7.3-.9s4.5-.3,6.6,0,7.3,2.5,8.6,3.7c0,0,5.6,4,5.9,4.6s.2,2.1.3,2.5.5,2.4,1.1,2.6,7.7-.7,8.5-.9c.8-.2,3.1-.9,3.5-1.4s1.8-6.4,1.8-6.4c0,0,.2-1.5.9-.5v-.4Z" />
  <path class="cls-1" d="M464.2,153.5s1.7-2.2,2-2.3c.2-.1,1.9-.3,1.9-.3,0,0,3.1-.4,3.9-.7.7-.3,1.7-1,2.1-1.3.4-.4,1.8-1,2.7-1.1,1-.1,1-.4,1.6-.4s5.8-.1,6-.2c.3,0,6-2.8,6.5-2.8s2.6.2,3.2,0,3.3-2.3,3.8-3.6c.5-1.2,1.6-3.9,1.6-4.6s0-1.5.5-1.4c.4,0,.9.3.9,1s-.7,4.6-.8,5.1-.7,2.4-1.5,3.2c-.7.8-2.8,2.8-2.9,3.4-.1.6-.3,3.3,0,3.9.4.6,2.8,3,3.4,3s2.6.2,2.9,0c.4-.2,3.6-3.6,5.4-3.8.5-.1.3-.4.4-.5,0-.1.2-3.3.2-3.3,0,0,2-2.1,2.7-3.5.6-1.4,1.4-3,1.4-3.5,1-.4,1.9-.8,2.2-1s1.5-.9,2-2c.4-1,.8-1.7.9-2.7,0-1,0-3.1-.2-3.8s-.2-3.7-.2-3.7l-1.8-2.6h-2.8c0,0-5.4-6.4-6-6.7-.6-.3-1.2-1.3-2.3-1.3s-2.4-.2-2.8-.6c-.4-.3-.7-.9-1.1-.9h-5.2s-1.8-.5-2.8-.6c-1-.2-3.3,0-4.6.6-1.7.3-2.7.3-3.4.5-.8.2-2.5,1-3,1s-2.5,0-3.1.2-1.4.7-1.4,1.4,1.6,1.6,1.8,1.9c.1.3.2,1-.2,1s-1.6,0-1.8,0c-.2,0-3.3-2-3.7-2.3-.3-.3-.6,0-.6,0,0,0-2.9,2.4-3.8,4.3-1,1.9-1.3,3.6-1.2,4,0,.4-.1,1.1-.1,1.1,0,0-1-.9-.9-1.8.2-.9.1-2.3.7-2.9.6-.7.7-.9.7-1.2s-.3-1.5.1-1.9,3.1-2.1,3.4-2.3c.3-.2,1.7-1,2.4-1.3.7-.3.9-.2.8-.5,0-.3-.2-1.7-.2-1.7,0,0,0,.2.2-.4.1-.6.2-1.5,0-1.9-.1-.4,0-.7,0-.9s.8-.5,1.2-1.2c.5-.7.4-1.2.4-1.6v-3.6s0-.4.2-.6.6-.5.6-.7,0-3.6-.2-4.1c-.3-.4-2.1-2.2-2.5-2.7s-1.2-2-2.3-2.3c-1.2-.3-3.3-1.1-4-.9-.7,0-1.6.4-2.1.9,0,0-.6.4-1.1.4s-.7,0-1,0c-.4.2-.5.6-.9.9s-.4.5-1,.7-.7,0-1.2.7-1.9,3.5-2,3.8-.4,2-.4,2.6.1,1.8.3,2.2c.2.4.6.9.7,1.5,0,.6.1,2.3.2,2.5,0,0,.3,1.7.5,2s1.2,1.7,1.4,2c.2.3.4.3.9.3s.9.2,1.5,0c.7-.2,1.4-.5,1.8-.7.4,0,2.9-.2,2.9-.2v1.4s-.2,1.2,0,1.4c.2.2.6,1,.6,1.2s.3,1-.7,1.5-1.6,1.3-1.6,1.3c0,0-.9,0-1.1.3s-.3,1.5-.4,1.8c0,.3-.4,2-.4,2,0,0-.3,1.1-.6,1.3s-2,0-2,.8.3,1,.3,1c0,0,.8,0,.9,0,0,.2,0,.5-.1.6-.2.2-.7,1.2-1.1,1.2s-1.6-.1-1.8.1c-.2.2-.9,2-.7,2.3.2.3,1.8.3,2,.6s.6.7.4,1.3-.8,1.9-1,2.2-.6.8-.6,1.4,1.6.5,1.6.5c0,0,.7.2.6.6,0,.4-1.3,1.3-1.7,1.5,0,0-.4,0-.6-.1-.2-.2-.7-.2-.8-.2,0,0-.9.4-.9.8s0,1-.2,1.2c-.2.3-1.4,1.2-1,1.7.3.6,1,.4,1,.4,0,0,1.5-.5,2-.5s1.4,1.1,1.6,1.6.4,1.3.3,1.7-.5.5-.3,1,.6,1.4.9,2.1c.3.7.5,2,.6,2.6s.2,1,.4,1.5c.1.5.2.8.4.7.1-.2.5-.6.5-.6l-.3.3Z" />
  <path class="cls-1" d="M470.3,165.9c-1.7-.4-3.9-1.2-4.9-1.5s-5.4-.7-6.2-1.2c-.8-.4-5.8-2.9-7.5-5.4-1.9-2.2-3.3-3.4-3.3-3.4l-.2-1.1s-2.9-3.1-2.7-7.2c.2-4.1,4.6-14.2,4.6-14.2,0,0,1.8-4.5,2.3-4.9.5-.3,1.4-1,1.4-1v-1.8l1.4-1.4s.2-4.3,0-4.9-1.2-3.3-1.8-3.5l-1,.7c-.8.9-1.7,2.2-1.8,2.3-.2.2-1.8,3-2.7,3.9-.8.8-2,2.2-2,2.2,0,0-2.2,3.2-2.3,3.5-.4.7-1.3,5.3-1.7,6.1-.4.8-1.3,4.7-1.3,6s1.1,2.9,1.1,3.5-.2,1.2-.4,1.7.3,1.4.4,2.4c.2,1-.3,1.5-.4,2.4-.2.8-.6,2.3-1,3s-1.4,1.9-2,2.5c-.6.5-.3,1.8-.6,2.9-.2,1.1,3,4.4,3.5,4.8.5.4.7,0,2.4,0s.7.1,1.4.5c.8.4.8.3,1.8.4.9.1,2.4.6,4.5.8,2.1.3,1.4.5,3.1.9s1.4.6,2.4.9c1,.4,1.7.7,2.3,1.4.7.8,3.8,3.4,3.8,3.4l8.6-4.4v-.4h-1.3.1Z" />
  <path class="cls-1" d="M379.2,115.2s2.9,1.2,4.1,1.4,3.5.8,4.4.9,2,.2,2.7,0,2.2-.9,2.6-1.5,2.4-2.5,2.6-3.5c.3-1,.4-3,.4-3.3s-.4-2.7-.7-3.3c-.3-.6-1.3-1.3-1.3-1.3,0,0-1.3-2-2.4-2.6s-2.9-1.7-4.4-1.6c-1.5,0-3.1.4-4.1,1.2-.9.8-2,2.5-2.2,3.3-.1.8-.6,2.2-.6,2.2,0,0,0,.4-.7.4s-.4-1.9-.6-2.7-.3-3-1-4.4-4.4-7.8-9.5-10.4-9.9-3.3-9.9-3.3c0,0-2.8-.4-4.2,0-1.4.4-5.8,2.5-5.8,2.5,0,0-1.1-.2-2.1.3-1,.4-4.3,2.9-5,3.3s-2.2,1.7-3,1.9c-.9.2-1.8.2-2.2.6-.4.3-2,1.6-3,3.1-.9,1.5-2.7,4.6-2.7,6.2s-.5,3.9.4,7.3c.9,3.5,1.4,6.1,2.2,6.8.8.8,4.5,3.6,5.9,4.5,1.3.9,1.4,1.8,2.5,2.5,1,.7,2.5,1,4,1.7s4.4,1.6,6.2,1.6,2.7.5,5.8,0c3.1-.5,4.2-.8,5.9-.9,1.7-.1,1.8-.3,2.8-.4,1-.1,3.5-.9,5.1-2.3,1.7-1.4,3.4-2.3,4.1-4,.7-1.8,2.3-4.3,2.4-4.4,0-.2.7-1.8,1.1-1.6l.2-.2Z" />
  <path class="cls-1" d="M451.4,164c-2.1-.3-3.6-.7-4.5-.8s-1,0-1.8-.4.2-.4-1.4-.5c-1.7,0-1.9.3-2.4,0-.5-.4-3.7-3.7-3.5-4.8s0-2.4.6-2.9,1.5-1.7,2-2.5c.4-.7.9-2.2,1-3,.2-.8.6-1.3.4-2.4-.2-1-.7-1.9-.4-2.4.2-.5.4-1,.4-1.7s-1.1-2.3-1.1-3.5.9-5.1,1.3-6c.4-.8,1.3-5.4,1.7-6.1.2-.3,2.3-3.5,2.3-3.5l.2-.2c-.2-.5-.7-2-1.4-2s-3,.2-3.3.3-5.3.4-6.2.3c-.8,0-3.7-.9-4.4-.9s-5.1,0-5.7-.3c-.6-.2-2.4-.9-7.7-5.4-5.3-4.6-6.1-5.4-8-5.7-1.8-.3-3.2-.7-3.6-.5-.4,0-.8.6-1.6.3-.8-.3-3-1.4-3.9-1.6s-2.4-.5-3.8.5c-.4.4-.6.7-.6.9s-.1,2.3-.4,3.3-2.2,2.9-2.6,3.5-1.9,1.3-2.6,1.5-1.8,0-2.7,0c-.9,0-3.3-.7-4.4-.9-1.2-.2-4.1-1.4-4.1-1.4-.4-.2-1,1.4-1.1,1.6,0,.2-1.7,2.7-2.4,4.4-.7,1.8-2.4,2.7-4.1,4-1.7,1.4-4.1,2.2-5.1,2.3-1,.1-1.1.3-2.8.4-1.7.1-2.8.4-5.9.9s-3.9,0-5.8,0-4.8-.9-6.2-1.6c-1.4-.7-2.9-1-4-1.7-1-.7-1.2-1.6-2.5-2.5-1.2-.8-4.4-3.2-5.5-4.2h-1.3c0,0-3.5-.5-4-.4-.5,0-.7,0-1.2.4-.4.5-1.2,1.6-1.4,3-.2,1.4,0,4-.4,5.2-.4,1.2-1.5,3.9-2.1,5s-2,2.3-1.9,5.1c0,2.8.1,4.4-.6,5.6-.7,1.3-3,2.8-3.3,2.9-.3.1-3.6,1.7-3.9,2.3s-1.4,1.8-1.1,3c.4,1.2,0,2.1.9,2,.8-.1,2.7-.9,3-.9s.7.7.9.6c.2,0,.7-.9,1.3-.2.6.7,2.7,4.6,2.9,5.6.2,1,1.4,4.9,1.5,5.5s1.9,6.1,1.9,6.8.5,3.5.7,4,.9,2,1,3.4c0,1.4.7,3.4.6,5.5s.2,2.8-.5,3.9c-.7,1.1-2.5,4.6-2.5,4.6,0,0-.2.7-1,1.5s-4.3,3.6-5.1,4.7c-.8,1-2.2,3.4-2.5,4.4s-.9,3.5-1.4,4.4c-.6.9-2.4,3-3.4,3.4s-1.5,1.1-2.1,1.2c-.6,0-4.1,1-4.6,1s-2.8.5-3.5.6-2,.5-3,1.2c-1,.6-2.8,1.2-3.5,1.3s-3.1.6-3.2.6-1.3.5-1.9.6c-.7.2-1.5,1-2.2,1s-1.9.3-1.9.3c0,0-.2.2,0,.5.2.2,1.6,1.1,1.6,1.5s.2,1.7.2,2.1-.3.8,0,.9h2.4c1.1,0,1.9,0,2.7-.5.8-.5,4.4-2,4.8-2.5.5-.5,2.8-1.8,3.7-2.4.9-.6,1.5-1,2.5-.8s2.4.6,3.5.7c1.1.1,2.6.1,3.2-.1.6-.2.4,0,1.6-1.5,1.2-1.4,2-3.1,2.5-3.5s1-1.1,1.9-1.9c.9-.7,1.4-1.2,1.7-1.8.3-.6,1-3.6,1.2-4.2.2-.7.7-2.3,1.2-2.8s1.4-1.5,2.4-1.6c1,0,.8,0,1.6-.6.8-.6,1.1-.7,1.4-1.7s.4-2.3,1-3,1.2-1.8,2.1-2.6,1.6-1.5,1.7-1.9-.1-2.2.2-3.2c.3-1,.6-2.1,1.2-2.4.6-.2,1-.5,1.4-.7s1.5-1,2.4-.9c.8,0,6.2-.1,6.2-.1,0,0,.8.1,1.2-.1s4.1-2.8,4.1-2.8c0,0,.5-.4,1.4-.3.9,0,2.6,1.2,2.7,1.4,0,.2.5.8,1,.9.5,0,1.5,0,2.9-.2,1.4-.3,2-.5,3.2-.2,1.2.2,2,0,3,.4,1,.3,2,.3,2.7.5s1.7.5,2.3,1c.6.5,1.5.9,1.9,1.2.4.2,1.5.7,1.9,1,.5.3.9.1,1.2.6.3.5,1.7,1.9,1.9,2.4.2.4,0,.9.6,1.4s2.2,1.2,2.8,1.4c.6.2,2.2.6,2.9,1.2.7.5,1.8,1.4,2.2,1.8.4.4,1.5,1.7,1.9,1.9.5.2,1.3.4,1.9,1.1.6.7,1.5,1.5,1.8,2,.3.6.7,1.2,1.2,1.7s2.3,2.4,2.8,2.8c.5.4,1.7.7,2.1.5.5-.2.5-1.3.8-2s2.3-1.4,2.3-1.4c0,0,2.2-.2,2.4-.2s1.1-.3,1.5-.6c.4-.4,1.2-.8,2-.9.7,0,2-.2,3.1,0s3.8,1.5,4.6,1.2,2.5-2.4,2.5-2.4c0,0,.7-.9,2.5-.9s2.9-.1,3.6.1,2,.5,2.6,1.1c.7.6,1.6,1.2,2.2,1.6.6.3,1.6.8,1.9.9.3.1.5.4,1.4.8.9.3,1.7.6,2.6.7.9,0,2.3,0,2.9-.1s2.8-.6,3.7-.6,2.1-.1,3.3.2c1.2.4,2.5.9,3.2,1.3.7.4,1.7.7,1.7.7,0,0,.7-1.7,1.5-2.2s2.2-1.3,2.4-1.3-.2-.5-.2-1.9-.2-1.7.5-2.6c.7-1,1.9-2.8,2.2-3.1.3-.3.7-1.6.7-1.6l.4-7.6.9-17.6v-2s-.4,0-.7-.1h0Z" />
  <path class="cls-1" d="M443.8,204s-.9-.3-1.7-.7c-.7-.4-2-.9-3.2-1.3-1.2-.4-2.5-.2-3.3-.2s-3.1.5-3.7.6-2,.2-2.9.1c-.9,0-1.7-.4-2.6-.7s-1-.7-1.4-.8c-.3-.1-1.3-.6-1.9-.9-.6-.3-1.5-1-2.2-1.6s-1.9-.9-2.6-1.1c-.7-.2-1.9-.2-3.6-.1-1.7,0-2.5.9-2.5.9,0,0-1.6,2.2-2.5,2.4s-3.5-1-4.6-1.2-2.4-.1-3.1,0c-.7,0-1.5.5-2,.9-.4.4-1.2.7-1.5.6-.2,0-2.4.2-2.4.2,0,0-2,.7-2.3,1.4s-.4,1.8-.8,2c-.5.2-1.6-.1-2.1-.5s-2.3-2.3-2.8-2.8-.9-1.1-1.2-1.7c-.3-.6-1.2-1.3-1.8-2-.6-.7-1.4-.9-1.9-1.1-.5-.2-1.5-1.5-1.9-1.9s-1.6-1.3-2.2-1.8c-.7-.5-2.3-1-2.9-1.2s-2.2-.9-2.8-1.4c-.6-.5-.4-1-.6-1.4s-1.5-1.9-1.9-2.4c-.3-.5-.8-.3-1.2-.6-.5-.3-1.5-.7-1.9-1-.4-.2-1.2-.7-1.9-1.2-.6-.5-1.6-.7-2.3-1-.7-.2-1.7-.2-2.7-.5s-1.8-.1-3-.4c-1.2-.2-1.8-.1-3.2.2-1.4.3-2.4.3-2.9.2-.5,0-.9-.7-1-.9,0-.2-1.8-1.4-2.7-1.5-.9,0-1.4.3-1.4.3,0,0-3.6,2.5-4.1,2.8-.4.2-1.2.1-1.2.1,0,0-5.4.2-6.2.1-.8,0-2,.7-2.4.9s-.8.5-1.4.7-.9,1.4-1.2,2.4c-.3,1,0,2.8-.2,3.2-.1.4-.8,1.1-1.7,1.9-.9.8-1.5,1.9-2.1,2.6-.6.7-.7,2-1,3s-.6,1-1.4,1.7c-.8.6-.6.5-1.6.6-1,0-1.9,1.1-2.4,1.6s-1,2.2-1.2,2.8c-.2.7-.9,3.6-1.2,4.2-.3.6-.8,1-1.7,1.8-.9.7-1.5,1.4-1.9,1.9-.5.5-1.3,2.1-2.5,3.5s-1,1.2-1.6,1.5c-.6.2-2.1.2-3.2.1-1.1-.1-2.5-.5-3.5-.7s-1.7.2-2.5.8c-.9.6-3.2,1.9-3.7,2.4s-4.1,2-4.8,2.5c-.8.5-1.5.5-2.7.5h-2.4c-.6.2-1.2.3-1.4.3-.3,0-1,.5-2.2.6-1.3.1-1.6.7-2.2.6-.5-.1-1.7.6-2.6,1.4-1,.8-1.9,3.9-2.4,5.7s-.8,3.4-1.5,3.9-1.3,0-1.4-.1c-.1-.2-1.8-1.7-2.4-1.7s-1,1-1.2,1.7-.7,4.8-.7,5.9.9,2.1.9,2.1c0,0,3.9,4,4.1,4.6s-.1,1.4-.5,2-1.8,1.1-2.6,1.5c-.8.4,0,1.9,0,1.9l4.1,6.6s2.7,3.9,4.1,6.7c1.5,2.8,3.8,4.4,4.6,5.1.9.6,2.5,0,3.3.2.7.1,1.2.3,1.8.7.7.4,1.2.8,2.2,1.1,1.1.3,3.9.8,4.9,1.2,1,.4,2.7,1,3.4,1.9.7.8.7,2,.7,2.4s1.1,2.3,1.5,4.1c.4,1.8.6,2.4.7,3.2s.8,2.4,1.1,3.2c.3.8,1.2,1.5,1.4,2.1.2.6,0,2.4,0,3.9s.4,4.6.6,5.8c.2,1.2.7,1.8,1.4,2.6.6.8.9,1.5,1.2,3.1.2,1.6,1,4.4,1,4.9s.8,4.3.9,5.4c0,1.1,1.1,2.4,1.8,3s3.6.9,4,.8c.4,0,.5-.6.7-.7.2-.2,3.6-2.9,3.6-2.9,0,0,2-1.6,2.7-2.3.6-.7.7-.9,1.3-1.3.6-.4,1-.5,1.5-.7s.9-.3,1.4-.5c.5-.1.9-1,1.3-1.6s.7-.7.9-.8c.1,0,.9-.7,1.3-.9.3-.2.8-1.1,1-1.3.2-.2.9-.5,1.3-.7.4-.1,1.4-.6,1.7-.8.2-.2,0-1.1,0-1.6-.1-.5.1-1.5.3-2,.2-.5.6-.5.8-.5s.6-.4.9-.6.3-.8.6-1.1c.4-.2.7,0,1.1-.4.4-.3,1.2-1.6,1.4-1.9.2-.4,1.7-2.1,1.8-2.5.1-.4.3-1.7.4-2.2s.6-1,.6-1c0,0,2-1.4,2.3-1.6.4-.3,1.1-1.1,1.2-1.4.1-.4,0-1.1,0-1.4s-.2-.8-.3-1.7v-5.8c0-.7.3-1.2.6-1.7.3-.5,1.1-2.1,1.5-2.9s.8-2.3,1-3,1.1-2,1.4-2.4,2.8-2,3.6-2.6c.8-.6,2.8-3,2.9-3.2.1-.1.9-.9,1.2-1,.2,0,.5.2.5.2,0,0,1.4.6,2.2.5.8,0,2.8-1.4,2.8-1.4,0,0,2.1-1.3,2.8-1.3s.8.3,1.1.7c.3.3.6,1.8,2.9,2.8s3-1,3-1.8-1.5-3.8-1.5-3.8l.2-.2s.3-.2.5-.4c.2-.1,1.7-.5,2.2-.6.5,0,1.3-.6,1.3-.6.3-.1.7-.3,1-.1.5,1.5,1.2,1,2.1.8s1.9-2,1.9-2l5.1-2.8s4.6-2.5,5-2.6,1.2.1,1.4.4c.2.2.9.6.9.6h3.2c.6,0,.8-.2,1.2-.5.4-.3.4-1.7.4-1.7,0,0,.2-3,.3-4,0-1,.6-2.8,1.1-3.6s2-1.4,2.7-1.5,1.3-.7,1.5-.9,1.2-1,1.6-1.3,1.2-1.2,1.4-1.6c.2-.4.2-.9.2-1.4s.8-1.8,1-2,.6-.4,1-.4,1.4.2,1.9.5c.6.2,2.4-.2,3.8-.2s1.6-.4,2.3-.7c.7-.4,1.7-1.3,2.3-1.7.6-.4,2-1.6,2.2-1.8s.2-1.3.4-1.6c.2-.3.8-1.5.8-1.5,0,0,.7-1.6.7-2.1s.5-.8,1-1,1.4-1,1.7-1.4c.3-.4.7-1.8.7-2.2s.5-1.5,1.2-2c.7-.6,1.3-.7,1.8-.7s2.7-.4,3.4-.6c.7-.2,1.7-.9,2-1.1.3-.2,2.1-1.6,2.6-1.7.4-.1.7,0,1.1,0h1.5c.4,0,.3-.4.2-.6-.1-.2.4-1.9.5-2.5,0-.6.8-1.4.9-1.4l.9-1.6,1.2-2.8.5-1.4-.2.4h0Z" />
  <path class="cls-1" d="M550.8,158.1s0-.9-.2-1.2-.6-1-.3-1.3c.3-.2.8-.2.9-.3s3.2-4.8,3.2-4.8c0,0,1.8-3,2.2-3.1s1.9.7,1.5,1.8c-.4,1-1,2.2-1.4,2.6-.5.4-1.6,1.5-1.7,1.7,0,.1-.3.5,0,.7.2.2.5.7,1.6.4,1-.4,1.7-.7,3-.7s2.3.2,2.5.5c.2.2,1.4.7,1.9.8s2.3,1.5,2.9,1.9c.6.3,1.5,1.5,1.5,1.5l1.9,3.1s1.2,1.5,1.1,2c0,.5-1.9,3.1-1.9,3.1l-6.4,10.4,9.9,15.9,8.9,13.6-1.9,7h-1.6s-.5-.2-.8-.1-.7.5-.7.5c0,0-1.1-1.2-1.8-1.2s-2.2.3-2.7,1.2-1.1,2.3-1.3,2.5-.2.9-.7,1.2-3.6,2.4-3.8,2.5c-.3,0-.6,0-1.2-.2-.6-.2-1.5-.6-2.8-.6h-4.7l-6.4-4.4-10.9-8.3s-1-.3-1.4-.4c-.3-.1-.8-.4-1.1-.7-.2-.4-1.3-2-1.7-2.9s-1-2-1.4-2.6-2.2-1.1-2.7-1.2c-.9-.6-1.2-.9-1.4-1.5-.3-.5-1-1.4-1-1.9-.3-.7-2.5-2.2-2.5-2.2l-7.5-6.3,5.2-5.9s4.1-4.5,6.4-4.4c2.3,0,4.2,0,4.8-.2s1.7-.6,2.2-1.3c.6-.7,1.5-2.3,2.1-2.5s1.4-.6,1.7-1,.9-2.7,1.1-3.4c.2-.7.7-2.7,1.5-3.6.9-.9,2.5-2.7,3-3.2.5-.4,1-1,1.5-1.1h1.4v-2.4Z" />
  <path class="cls-1" d="M515.5,80.1l7.7,15.9,56.1-31.9s.3-.2,0-.7-4.3-7.2-4.3-7.2c0,0-.5-.3-.6,0s-.6,1.2-1,1.5-1,1.1-1.3,1.4c-.4.3-.7.6-1.5,1s-5.3,2.8-5.3,2.8c0,0-3.8,2.1-4,2.2s-1.8.9-1.8.9c0,0-.2.4-.6.5-.4,0-1,.4-1,.4h-1.5c-.5,0,0-.4-.9,0-.9.6-1,.8-1.1.8s-.3-.5-.7-.2c-.4.2-.9.4-1,.7,0,.2-.3.7-.6.7s-.4,0-.8,0c-.4.2-.6.5-.7.6,0,0-.5,0-.7.2-.2.3-.7.5-.8.7-.2,0,.3-.2-.2,0s-.7,0-1,.2c-.3,0-.7.3-.8.4s-.4,0-.6,0c-.2.2-.7.6-.7,1.2s0,1.2-.3,1.5c-.2.2-1.3,1.2-1.5,1.5s-1.6,1.1-1.6,1.3-.6,1-1.4,1.6c-.8.6-2.2,1.5-3,1.5h-4.6s-.8-1.5-1.7-1.8-2.7-.7-3.5-.7-.9.4-1.6.5c-.7,0-5.3-.2-5.9-.2s-1.4.2-2,.5c-.7.3-3.3,1.8-3.3,1.8h0Z" />
  <path class="cls-1" d="M615.9,868.3s0,.9.2,1.2,3.1,5.9,3.6,7,1.7,4.6,1.8,5.2c0,.6.2,5.2,0,5.7s-1.1,3.3-3,4.9c-1.9,1.7-14.7,9.4-14.7,9.4l-.6.5s-.2.4-.9-.2c-.6-.6-2.4-3-3-3.4-.5-.4-1.9-.9-3-1.4-1.2-.5-2.4-1.1-3.4-1-1.1,0-1.7,0-2.7.2s-1.3.5-2.4.2c-1.1-.3-1.2-.3-2.7-.5s-1.5,0-2.6-.6c-1.1-.7-1.1-1-2.5-1.1h-7.8c-.5,0-2.5.2-3.1,0-.6,0-1.6,0-2.3-.3-.7-.2-7.2-3.1-8.1-3.5-.9-.4-5.5-2.5-6-2.7s-1.2-.2-1.2-.2c0,0-.3-.7,0-.8.4,0,1.9-1.3,2.5-1.5.7-.3,2.5-1.6,3.3-2.2s1.6-.9,1.7-1.6c0,0-.3-7.1-.3-8.1s-.2-4.9-.2-5.9v-2.9c0-.1,2-.4,2.8-.6.8-.2,1.6-.7,3.6-.6,2,0,2.7-.2,5.4.5s4,.3,4.8.3,3-.6,4.3-.8,1.8-.4,3.1-.4,4.1,1,4.1,1l3.6,1.3s3.6,1.4,4.7,1.5c1.1.2,3.3.4,4.3.5s4.7.4,6.6.5c1.9,0,4.5.3,5.6.3h4.6,0Z" />
  <path class="cls-1" d="M474.4,799s.8-1.4.8-2.6.5-2,.5-2.6,1-2.6,1.4-3.3,1.2-2.5,1.3-2.9c0-.4,0-.6-.2-.9-.2-.3-3.3-3.6-3.6-4.1-.3-.4-1.7-2.5-2.6-2.9s-3.8-1.6-5-2-3.4-1.1-3.9-1.6-1.2-1.4-1.7-1.6c-.5-.2-1.6-.2-2.2,0-.6.3-7.4,3.1-7.4,3.1,0,0-1.5.9-2,.5s-.5-3.9-.5-3.9c0,0,.2-2.1-.2-2.4-.4-.4-3.6-1.3-4.6-1.1s-1.7,0-2.1.8-1.1,1.5-1.4,1.8c-.3.2-1.2.2-2.1.3-.9.2-1.2.3-1.7,0s-.8-1.7-.9-2.2c0-.5-1.2-2.7-1.1-3.1,0-.5,0-2.2.6-2.9.5-.7,1.1-1.2,1.1-1.8s.3-2.5.6-2.9c.3-.4.7-1.5.6-1.9-.1-.3-2.7-2.4-2.7-2.4,0,0-.4-.2-1,0s-1.5,1.2-2.3,1.2h-2.5s-.4-.2-.4-.8,0-1.4-.3-2c-.2-.6-1.5-3.3-1.5-3.3,0,0-1.8-2.9-2.5-3.4-.7-.4-1.9-.8-3.5-.8s-2.7-.2-3.1-.2-1.9-.3-2-.3c-.2,0-2.3-.6-2.3-.6,0,0-.4,0-.3-.6,0-.6,1.1-3.2,1.4-4.3s1.1-2.6,1.1-3.6.2-4.3.2-4.3v-2.7s-.2-.2.6-.3c.8,0,3.8.2,3.9,0s.2-.4.9-.4,1.7-.4,2.1,0,.5.9.6,1c.1.2.2,1,.7,1.8.6.7.9,1.5,1.2,1.8.4.2,2.6,1,3.3,1.7.7.7.7,2,1.3,2.5.6.5,3.4,3.4,5.8,5s5.9,3.7,7.5,4.4c1.6.8,2.7,1.9,3.3,2h2.8c.4,0,.5-.3.9,0s1.2.9,2.5,1.4c1.2.5,4.2,2.5,5.5,2.7s1.4.6,2.3,1.2c1,.5,1.9.6,3.3,1.2,1.4.6,3.4,1.7,4.1,2.2s.9.7,1.7,1c.8.2,1.4.6,3.1.7,1.7,0,3.4.2,4.2.7.9.4,2.1,2.2,3,2.5s3.8-.2,4.5.2,3.7,3.6,4.9,3.9c1.2.4,2.2,0,3.3.8,1.1.7,3.7,2.9,4.3,3.7.6.9.4,1.5,1.8,1.5s6.1.9,7.1.7,4.7-1.7,5.3-2c.6-.2,2.7-.8,4.5-.8s4.4.7,6.8,2.4c2.5,1.1,5.3-.2,5.3-.2,0,0,2.7-3,4.1-2.7,1.4.3,3,1.9,3.3,2.8.4.9.9.8,1.3.8s1.2,0,1.6-.3c.4-.3,1.2-.5,1.2-1.1s.4-.8.4-.8c0,0,2,0,2.6,0s2-.2,3-.6c.9-.4,2.3-.6,3-.4s2.1,0,2.4.7c.4.6.8,2,.8,2,0,0,.7.4.8.5.2,0,.6,1.3.6,1.7s1.6,1.1,1.6,1.1c0,0,2,.2,2.3.7s1.2,1.6,1.4,2.6c.2.9.5,2.4.6,2.6,0,.2.5,1,.5,1.8s-.3,1.8-.3,2.5-.2,2.6,0,3.2c.2.7,1.2,5.3,1.2,5.7v1.3s0,.4-.6.4-14,2.4-14,2.4l-27.3,5.5-16.7,3.4s-2.2.3-3.8-.2c-1.7-.5-9.3-2.1-10.7-2.3-1.4-.2-2.7-.4-5.4-.8s-6,0-6.4-.7c-.3-.7-1.2-1.3-1.8-2.1s-1.2-1.2-1.2-1.5.3-2,.3-2l.5-1.5.3.3Z" />
  <path class="cls-1" d="M581.7,797.4s-18.3,1.3-18.7,1.4c-.4,0-3.4.3-3.4.3-3.4.5-12.8,2.3-12.8,2.3l-27.3,5.5-16.7,3.4s-2.2.3-3.8-.2c-1.7-.5-9.3-2.1-10.7-2.3-1.4-.2-2.7-.4-5.4-.8-2.7-.4-6,0-6.4-.7-.3-.7-1.2-1.3-1.8-2.1-.7-.7-1.2-1.2-1.2-1.5s.3-2,.3-2l.5-1.5-3.4-1.5-1.7-.6c-.8,0-2.3.6-2.6.7-.3,0-2.2.8-3.1,1s-3.4,0-5.1,0-4.7-1-5.3-1.3c-.6-.3-3.4-1.3-4.5-1.8-1-.5-4.7-.8-6.8-1-2.1-.2-3.5-.5-4.2-.5s-.9.4-1.3.8c-.3.4-.6.2-.6.2,0,0-.9-1.2-1.5-1.4s-1.4-.2-2.4-.5c-.9-.3-5.2-1-5.8-1.1-.6,0-5.8-1.3-7.1-1.8-1.3-.5-3.5-.9-5.4-1.3-1.9-.4-6.6-.7-7.6-.8-1,0-1-.4-1.9-.6-1-.2-2.5-.6-3.4-.8s-4.8-1.2-5.9-1.5c-1.2-.3-3.2-.8-4.5-1.1s-3.6-.9-3.8-.9-5.1,0-5.9-.2c-.7,0-2-.7-3.6-1.1-1.7-.4-3.6-.7-4.8-.7s-2.6,1.5-3,2-.7.5-.8.5-2.1-.5-2.1-.5l-13.9-3.9s-9.4-2.7-10.6-3c-1.2-.2-2.2-.6-5.3-1s-14.3-2.2-16.6-2.5c-2.2-.3-3.7-.5-4.1-.7s-2.3-.7-3.6-1.1c-1.3-.4-5.6-1.1-6.9-1.3-1.4,0-2,1-2.2,1.3-.2.2-2.4,3.4-2.7,3.8-.2.3-.4,1-.5,1.7,0,.7-1,2.6-1.8,3.8s-2.7,2.1-3.2,2.4c-.5.4-5.2,2.2-6.1,2.5-.9.2-3.7,1.2-4.6,1.4s-3.3,1.3-1.7,2c.7.3,2.7,1.9,3.4,2.3.7.4,2.1,2,2.9,2.8.8.9,2.4,2.7,2.8,3.4s1.9,2.1,2.9,3c1,1,1.5,2,2.2,2.8s3.1,4,3.5,4.8,1.4,2.1,2.1,2.6c.6.5,2.8,2.4,3.4,3,.6.6,3.8,1.8,5,2s2.3,0,3.9.5,5.4,1.2,5.9,1.3,2-.1,2.9-.3,5.1-1.4,7.3-2,6-1.6,7.7-1.7c1.6,0,3.3-1.1,6-1.5,2.7-.4,5.2-.6,6.7-.8s5.1-1.9,6-2.2,4.9.5,6.5.6c1.6,0,3.7,1.2,5.2,1.3,1.5.2,4.3-.5,6.1-.7,1.8,0,6.2-1.7,6.7-1.8.9-.3,2.9-1.2,4.3-1.5,1.4-.3,3.8-.7,5.5-.8,1.7,0,6.7.5,10,.7,3.2.2,6.5,1.5,6.7,1.5.3,0,1.8.4,2.4.9s1.8,1,2.2,1.3,2.1,1.8,2.7,2.3.9,1,1.6,1.4c.7.3,1.4,1.4,1.8,1.8s2.2,2.7,2.7,2.9,1.5,1.1,1.8,1.4c.4.3,4.9,4.1,5.3,4.3.3.3,4.3,3.9,4.5,4.1s3.4,2.4,4.1,2.5,1.9-.2,2.7-.4c.8-.2,2.4.2,3.7.4s3.6,1,5.2,1.2c1.6.3,4.6.7,5.6.9s3,1.6,3.6,1.9c.6.4,1.7.4,3.1.5s4.9.2,5.9.3c1,0,2.1.3,2.5.5s.8.6,1.1.9c.3.3,3.3,3.7,3.5,3.9s.8.5.8.5l5.1,3.4s4,2.9,4.3,3.2.4.8.9,1.4c.4.6,4,3.5,5.4,4.3s3.1,2,4.6,2.7c1.5.6,8.9,1.6,9.5,1.8.7.2,1.3.6,2,1.2.7.6,1,.9,1,.9,0,0,1,.2,1,.3s.5.3,1.9.8c1.3.5,2.5,1,2.8,1.1.2,0,1.3.6,1.7.6s1.1,0,1.7-.2c.6-.2,2.4-1.4,2.9-1.5s1.6-.3,1.8,0c.3,0,3,1.1,3,1.1h3.2s1.9.5,2.8.7c.9.3,1.7-.7,1.7-.7,0,0,4.2,1.6,6,2s5,.4,8.2.4,8.6-.5,9.3-.5,2.3-.4,2.9-.5c.6-.2,6.3-1,7.9-1s5.9.9,7.3,1,4.2-.9,4.4-.9,2.4-.5,4.8-.4c2.4,0,5.6.9,7.4,1.4,1.9.5,4.9,2.1,7.6,2.7,2.7.7,8.9.7,11.1.7s7.5-.5,7.5-.5l2-12.4s2.1-14.6,2.2-15.8c.2-1.2,1.1-16.6,1.2-18.1.2-1.5.5-26.3.5-26.3l-41,3.3.4-.2Z" />
  <path class="cls-1" d="M282.1,787.5s1.4-.8,2.2-1c.9-.2,3.6-1.2,4.6-1.4.9-.2,5.6-2.1,6.1-2.5s2.4-1.3,3.2-2.4c.8-1.2,1.7-3.1,1.8-3.8,0-.7.2-1.3.5-1.7.2-.3,2.4-3.5,2.7-3.8.2-.2.9-1.4,2.2-1.3,1.4,0,5.6.9,6.9,1.3s3.2.9,3.6,1.1c.4.2,1.9.4,4.1.7s13.5,2.1,16.6,2.5,4.1.8,5.3,1c1.2.2,10.6,3,10.6,3l13.9,3.9s1.9.5,2.1.5.4,0,.8-.5,1.9-2,3-2,3.1.3,4.8.7c1.7.4,2.9,1,3.6,1.1.7,0,5.6.2,5.9.2s2.5.6,3.8.9c1.3.3,3.4.8,4.5,1.1,1.2.3,5.1,1.3,5.9,1.5.9.2,2.4.6,3.4.8s1,.5,1.9.6c1,0,5.7.5,7.6.8,1.9.4,4.1.8,5.4,1.3s6.5,1.7,7.1,1.8c.6,0,4.9.7,5.8,1.1.9.3,1.7.3,2.4.5.6.2,1.5,1.4,1.5,1.4,0,0,.3.2.6-.2.3-.4.6-.8,1.3-.8s2.1.3,4.2.5,5.7.5,6.8,1c1,.5,3.8,1.5,4.5,1.8.6.3,3.6,1.4,5.3,1.3,1.7,0,4.3.2,5.1,0,.9-.2,2.8-.9,3.1-1,.3,0,1.8-.7,2.6-.7l1.7.6,3.4,1.5h0s.8-1.4.8-2.6.5-2,.5-2.6,1-2.6,1.4-3.3,1.2-2.5,1.3-2.9c0-.4,0-.6-.2-.9-.2-.3-3.3-3.6-3.6-4.1-.3-.4-1.7-2.5-2.6-2.9s-3.8-1.6-5-2-3.4-1.1-3.9-1.6-1.2-1.4-1.7-1.6c-.5-.2-1.6-.2-2.2,0-.6.3-7.4,3.1-7.4,3.1,0,0-1.5.9-2,.5s-.5-3.9-.5-3.9c0,0,.2-2.1-.2-2.4-.4-.4-3.6-1.3-4.6-1.1s-1.7,0-2.1.8-1.1,1.5-1.4,1.8c-.3.2-1.2.2-2.1.3-.9.2-1.2.3-1.7,0s-.8-1.7-.9-2.2c0-.5-1.2-2.7-1.1-3.1,0-.5,0-2.2.6-2.9.5-.7,1.1-1.2,1.1-1.8s.3-2.5.6-2.9c.3-.4.7-1.5.6-1.9-.1-.3-2.7-2.4-2.7-2.4,0,0-.4-.2-1,0s-1.5,1.2-2.3,1.2h-2.5s-.4-.2-.4-.8,0-1.4-.3-2c-.2-.6-1.5-3.3-1.5-3.3,0,0-1.8-2.9-2.5-3.4-.7-.4-1.9-.8-3.5-.8s-2.7-.2-3.1-.2-1.9-.3-2-.3c-.2,0-2.3-.6-2.3-.6,0,0-.4,0-.3-.6,0-.6,1.1-3.2,1.4-4.3s1.1-2.6,1.1-3.6.2-4.3.2-4.3v-2.6l-1,.4s-1.2.8-1.5,1-1.7,1.4-1.8,1.6c-.2.2-1.6,0-2.3,0s-1.9-.9-2.2-1c-.3-.2-1.4-.5-2.5-.4-1.1,0-3.4.2-4,0-.6,0-.9-.3-1.4-.5s-2.3-2.7-2.5-3c-.1-.3-.5-.5-.7-.7s-1.8.8-2,.9c-.2,0-1.1,1.1-1.6,1.8s-1.4,1.1-2.5,2c-1.2.9-3.3,1.4-4.1,1.7-.8.2-7,1.9-7.9,2.2s-7.2,1.4-9.9,1.7c-2.7.3-8.2.7-10.2.7s-3-.2-3.7-.5-4.6-1.8-6.6-2.5-6.2-1.5-7.3-1.9c-1-.4-8-1-10.5-1.6-2.6-.6-7.6-.3-8.5,0s-1.8,1.1-2.5,1.7c-.7.6-7.3,5.2-7.7,5.5-.4.3-1,1.4-1.4,2.8-.4,1.3-2.9,5.5-3.8,7.1-.8,1.7-2.9,3.4-3.3,4.3-.4.9,0,1.9-.1,3-.2,1.1-.8,1.9-1.1,2.6-.3.7-.8,1.9-1,3.1-.2,1.2-1.7,4.5-2.4,5.2-.7.7-.5,1.4-.6,2.7s-.9,4.4-1.2,5.6c-.3,1.3-3.3,3.3-4,3.8s-4.8,3.5-5.8,3.9-7.4,1.1-7.8,1c-.4,0-1.3,0-1.5,0-.1,0,.7.6.8.7.1,0,2.8,1.9,2.8,1.9,0,0,.4,0,1.4-.5l-.5.3Z" />
  <path class="cls-1" d="M625,752.4c-.4-.3-1.2.6-1.7.9-.5.3-1.2.3-1.6.3s-.7,0-1.1-.3c-.4-.3-1,0-1.6,0s-1.5-.6-1.9-1c-.5-.4-1-.5-1.9-.8-1-.3-1.3-.3-1.8-.5s-1.5-.7-2.1-1c-.6-.4-.7,0-1.4,0s-2,1.1-2.3,1.2c-.2,0-1.5.7-1.8,1.1-.2.4-.7,1.1-.9,2.2-.2,1.1-.3,1.8-.5,2.4-.2.7,0,2.2-.2,2.7,0,.5-1,.6-2.3.5-1.2,0-1.6-.6-2-.7-.4,0-.7.2-1.8.2s-2.5.2-3.3.2-1.4-.2-2.2-.7c-.8-.4-2.6-1.5-4.5-1.8s-3.1.4-4.7,1.2c-1.6.8-3.1,3.8-3.4,4.5-.2.7-.8,1-1.1,1.2s-.8.3-1.5.3-2.9-.5-3.5-1-1.3-1.8-2-3.5-1.9-2.5-3.7-2.8-2.7,1.2-3.2,1.7-1.2.8-2.3,1.1-1.3,1.3-1.9,1.7c-.7.3-4.8.3-6.2.3s-4.4,0-5.5-.3-1.7,1.8-2.3,2.6-1,2.4-1.3,3-2.4,2.5-3.1,2.9c-.7.4-1.5,2.4-1.5,2.4l-1,2.3c.3-.2.6-.4.6-.8,0-.6.4-.8.4-.8,0,0,2,0,2.6,0s2-.2,3-.6c.9-.4,2.3-.6,3-.4.7.2,2.1,0,2.4.7.4.6.8,2,.8,2,0,0,.7.4.8.5.2,0,.6,1.3.6,1.7s1.6,1.1,1.6,1.1c0,0,2,.2,2.3.7s1.2,1.6,1.4,2.6c.2.9.5,2.4.6,2.6,0,.2.5,1,.5,1.8s-.3,1.8-.3,2.5-.2,2.6,0,3.2c.2.7,1.2,5.3,1.2,5.7v1.3s1.3.3,1.7.3,18.7-1.4,18.7-1.4l41-3.3,2.6-40.5s0-.9-.4-1.2h0Z" />
  <g>
    <path class="cls-1" d="M459.1,167.3c-.7-.8-1.3-1-2.3-1.4s-.7-.5-2.4-.9c-1.4-.4-1.2-.6-2.3-.8v2c-.1,0-1.1,17.6-1.1,17.6l-.4,7.6.2.6s5.3-8.7,5.4-9,2.2-4.7,2.4-5.2,2.1-4.4,2.4-4.8c.3-.4,1.3-1.8,1.9-2.1,0,0-3.1-2.7-3.8-3.4v-.2Z" />
    <path class="cls-1" d="M451.8,164.1h.4-.4Z" />
  </g>
  <path class="cls-1" d="M397.5,337.4c-1.3-.8-2.5-.9-3.9-1.6s-3-1-4-1-1.6-.2-2.6-.5c-1-.4-3.4-1.4-4.6-1.4s-1.5.5-2.4.5-5.1-.3-6.2-.7c-1.1-.3-5.5-1.7-6.3-2.5-.9-.8-3.3-2.7-3.7-3.8s-2.1-5.1-2.5-5.9c-.5-.8-1.6-2.7-4.3-3.6-2.7-1-4.4-1.8-5.8-1.5s-3,1-3.9,1.4c-.8.4-3.2,1.9-3.9,2-.6.1-.8.8-2,1s-1.8-.1-3.1.5c-1.3.7-4.2,3.6-5.7,3.8s-2.2-.5-3.7-.6-4.5.2-6.8-.1c-2.3-.3-3.5-.2-4.6-.7-.5-.2-1.3-.8-2.1-1.4h-.1c-.4,0-3.3-.3-4-.8s-1.7-1.9-1.8-3c0-1.1-.9-5-.9-5.4s-.7-3.2-1-4.9c-.1-.7-.2-1.3-.4-1.7l-14.2,4.3s-7.9,2.9-8.5,3.6c-.5.8-2.7,4-2.7,4.8s-.3,3.8-.4,4.1c-.2.3-3.6,4.3-4.7,5.2-1.1,1-2.6,2.3-2.5,4.5.1,2.3,2.5,6.9,3.7,8.3s1.6,1.8,1.6,2.1-.7,2.1-1,2.4-1.7,3.1-2.1,3.8c-.4.7-4.5,9.4-4.5,9.4,0,0-5.7,9-6.3,9.9-.6.9-1.8,3.3-2.2,3.7-.4.5-6.8,7.8-7.9,9.1-1.2,1.2-3.6,5.6-7.7,7.4s-4.8,2-5.2,2.2-8.2,3.6-12,4.1-5.2,1.7-5.8,2.1-2.9,1.5-4,2.8-5.1,7.2-5.8,8.4c-.7,1.1-4.6,6-4.9,6.9s-.9,5.3-.9,5.4-3.4,15.5-3.4,15.5c0,0-.7,3.1-1.2,4s-2.8,5.5-2.8,5.5c0,0-2.5,4.8-3.3,5.7s-12.6,13-12.6,13c0,0-6.7,7.2-6.7,7.4s2.5,3.6,2.5,3.6c0,0,5.6,8,6.9,9.5s5.3,5.8,5.3,7.1.7,3.7.5,4.8c-.2,1.1-.3,2.1,0,3.1.4,1,1.2,2.5,2.2,3.1s1.5.3,2,.9,3.2,2.7,4.2,3.4,3.2,2.3,4.8,2.6c1.6.3,6.9.4,7.3,0s3.8-3.1,4.9-3.4c1.1-.3,1.7-1.5,3.1-1.6s6.4-2.2,6.4-2.2c0,0,5.3-1.6,5.7-1.9.5-.3,1.9-1.6,2.4-1.6s3.8-.2,4.3-.4c.5-.2,1.7-.4,2.1-.6.3-.2,2.5-2.1,3.6-2.1s4,1.1,4.5,1.5.9.6,1.9.8c1,.2,3-.1,3.7-.3.7-.2,2.8-3.1,4.5-3.2,1.7-.2,4.2-.3,5-.2.7.2,2.6.8,3.5,2.2,1,1.4,3.1,4.3,3.4,4.6s.5.7,1,.7,5.3.1,6,.3c.6.2,1.9,0,2.3.5s1.1,3.2,1.3,3.9c.2.7,1,3.5,1.5,3.9s1.1.3,2.1,0,3.5-2.1,4-2.2c.5-.2,3.5-.5,3.8-.5s1.2-.5,1.4-.9c.3-.4,1.9-1.9,2.3-1.9s3.2.4,3.8-1.7c.6-2.1-.2-3.9.2-4.6s2.8-1.8,3.3-3.6.3-5.1-.2-6.4,1.4-2.1,1.4-2.1c0,0,1.4-.7,1.6-1.3.2-.7,3-10.3,3.1-10.9.2-.6,3-5.3,5.5-7.7,2.5-2.4,5-5.1,5.1-5.4.2-.3.5-1.6.5-1.8s0-3.4,2.1-3.9c2.2-.5,4.2,1.4,4.2,1.4,0,0,.3.2,1.1,0,.8-.2,2-1,3-1.8s4.6-4,5.2-4.4c.7-.5,8-5.3,8.8-5.3s1.3-.2,1.5.1c.2.3.3.5.6.5s.2-.5.8-.3c.6.1,2.5-.2,3-.3.5-.2,1.4-.5,1.9-.8s1.9-1,2.2-1.4c.2-.5.2-2.8,0-4.1-.2-1.3-1.5-7.7-1.7-8.2s-.9-5.3-1.3-6.3-.9-2.2-.9-3,.7-3.3,1.1-3.6,1.9-2.1,2.3-3.4,2.4-7.2,2.5-9.6c0-2.4.4-7.6.2-8.9s-.4-6.2,0-6.8c.4-.6,5.3-9.8,5.9-10.5s3.3-5.2,3.9-6.6,1.7-4.4,2.4-4.8c.7-.5,9.4-5,14.4-9s13.2-11,12.9-14.5-1.7-5-3-5.8l.5-.4Z" />
  <path class="cls-1" d="M449.4,200.4c-.4.8-.3,3.2-.5,3.6s-.3,1-1,1.6-3.3,4.1-4,5.4-2.6,5.3-2.6,5.3c0,0-4.7,7.9-5.1,8.5s-3.4,5.7-3.4,5.7c0,0-1.2,1.9-1.4,2.2s-.3,1-.3,1c0,0-.7,0-1.4.6s-5.6,6-5.6,6l-10.6,11.7s-3,3.4-3.3,3.9-.4,1-.6,1.4-5.2,5.8-5.2,5.8c0,0-.2.2-.4.7s0,1.2-.3,1.4-2.5,2.6-2.5,2.6c0,0-3.9,4.1-4.1,4.4s-.8,1.3-1.4,1.9-2.9,3.6-3.3,3.9-8.6,8.5-8.6,8.5c0,0-1.6,2.2-2,2.5s-1,1-1,1l-.8.9s-.3.5.2,1,10.4,10.8,10.4,10.8l19.3,19s.3.8,1,.2,1.5-1.9,1.8-2.2,2.6-1.7,3.2-1.8,1.4,0,2.2-.6.6-3.2,1.6-3.4,1.9,0,3.2-.6,2.1-1.6,2.4-1.7.6,0,1.5,0,2.6-.7,3.2-1.3,1.7-2.2,1.8-2.6,2-.9,2.9-1.8,1.4-1.6,1.4-1.9l.4-.2s1.9.2,2.4,0,2.4-2,3.3-2.7,1.4-1.4,1.4-1.7,5.6-5.8,5.6-5.8c0,0,2.2-2.5,2.5-3.4s.6-2.3,1.1-3.1,3-3.8,3.2-4.1,3.2-4.6,3.3-4.7.7-.9.6-1.5-1.2-1.7-1.2-1.7c0,0-.7-1.2.2-1.9s2.4-1.6,3.4-1.6,1.6-.1,1.7-.4.4-1.7-.2-2.6-1.9-1.9-1.7-2.8,1.7-2.4,3.2-2.3c1.5-.4,1.3-.5,2-1.2s4.3-4.6,4.8-5.3,2.2-3.1,2.5-3.7,4.7-5,5.1-5.4.6-.5,1-1.1,1.8-3.5,2.3-4.3,1.6-2.9,2.3-3.3,1.5-.8,2.4-1.6,3.7-3.5,4-4,2.2-5,2.2-5.6c.1-.4,0-.5-.7-.5s-3.8.2-3.8.2c0,0-.4,0-.8.2s-6.6,3-10.3,2.6-7.4-4.1-7.4-4.1c0,0-3.2-3.4-3.4-3.9s-1-1.7-1.3-2.1-1.7-2.7-2.2-3.4-2.2-3.8-2.5-5.3-.8-2.8-.9-3.5-.3-1.3-.3-1.7-.2-5.7-.2-5.7c0,0-1.5-1.2-2.6-1.2s-2.6.8-3.2.9-4.1-.1-4.1-.1h-1,.2Z" />
  <path class="cls-1" d="M447.6,200.7c-.3,0-1.7.8-2.4,1.3-.7.4-1.3,1.8-1.5,2.1h0s0-.2.2-.4l-.5,1.4-1.2,2.8s-.8,1.5-.9,1.6c0,0-.8.8-.9,1.4,0,.6-.6,2.3-.5,2.5s.2.6-.2.6h-1.5c-.4,0-.7-.1-1.1,0s-2.3,1.6-2.6,1.7c-.3.2-1.3.9-2,1.1-.7.2-2.9.6-3.4.6s-1,.1-1.8.7c-.7.6-1.2,1.6-1.2,2s-.4,1.9-.7,2.2c-.3.4-1.2,1.2-1.7,1.4s-1,.5-1,1-.7,2.1-.7,2.1c0,0-.6,1.2-.8,1.5-.2.3-.2,1.4-.4,1.6-.2.2-1.5,1.4-2.2,1.8-.6.4-1.6,1.4-2.3,1.7-.7.4-.9.7-2.3.7s-3.2.5-3.8.2c-.6-.2-1.4-.5-1.9-.5s-.8.2-1.1.4c-.2.2-1,1.4-1,2s0,1-.2,1.4-1,1.2-1.4,1.6c-.4.3-1.3,1.1-1.6,1.3-.3.2-.8.8-1.5.9-.7.1-2.2.7-2.7,1.5s-1,2.6-1.1,3.6c0,1-.3,4-.3,4,0,0,0,1.3-.4,1.7-.4.3-.7.6-1.2.5h-3.2s-.7-.4-.9-.6c-.2-.2-.9-.5-1.4-.4-.4.1-5,2.6-5,2.6l-5.1,2.8s-1,1.9-1.9,2c-.9.2-1.7.6-2.1-.8-.3-.1-.7,0-1,.1,0,0-.8.5-1.3.6s-2,.5-2.2.6-.5.4-.5.4l-.2.2s1.5,3,1.5,3.8-.7,2.7-3,1.8c-2.3-1-2.6-2.4-2.9-2.8-.3-.3-.4-.7-1.1-.7s-2.8,1.3-2.8,1.3c0,0-2,1.4-2.8,1.4s-2.2-.5-2.2-.5c0,0-.2-.2-.5-.2s-1,.8-1.2,1-2.1,2.6-2.9,3.2-3.3,2.1-3.6,2.6c-.3.4-1.2,1.7-1.4,2.4-.2.7-.5,2.2-1,3s-1.2,2.4-1.5,2.9-.5,1.1-.6,1.7v5.8c0,1,.2,1.4.3,1.7,0,.3.2,1.1,0,1.4-.1.4-.8,1.1-1.2,1.4-.4.3-2.3,1.6-2.3,1.6,0,0-.5.5-.6,1s-.3,1.8-.4,2.2c-.1.4-1.6,2.1-1.8,2.5-.2.4-1,1.6-1.4,1.9s-.8.1-1.1.4c-.4.2-.3.8-.6,1.1-.3.2-.7.6-.9.6s-.7,0-.8.5c-.2.5-.4,1.5-.3,2s.3,1.4,0,1.6c-.2.2-1.2.7-1.7.8-.4.1-1.1.5-1.3.7-.2.2-.7,1.1-1,1.3-.3.2-1.2.9-1.3.9s-.4.2-.9.8c-.4.6-.8,1.4-1.3,1.6-.5.1-.9.2-1.4.5-.5.2-1,.4-1.5.7-.6.4-.7.6-1.3,1.3-.6.7-2.7,2.3-2.7,2.3,0,0-3.4,2.7-3.6,2.9-.2.2-.3.6-.6.7h0c.7.6,1.5,1.1,2.1,1.4,1.1.5,2.3.4,4.6.7,2.3.3,5.3,0,6.8.1s2.2.7,3.7.6,4.4-3.1,5.7-3.8c1.3-.7,1.9-.4,3.1-.5s1.4-.8,2-1c.6-.1,3-1.6,3.9-2,.8-.4,2.4-1.1,3.9-1.4,1.4-.3,3.1.5,5.8,1.5,2.7,1,3.9,2.9,4.3,3.6s2.1,4.8,2.5,5.9,2.8,2.9,3.7,3.8,5.2,2.2,6.3,2.5c1.1.3,5.3.6,6.2.7.9,0,1.2-.4,2.4-.5,1.2,0,3.6,1,4.6,1.4s1.7.5,2.6.5,2.6.3,4,1c.6.3,1.1.5,1.6.6,1.7,0,3.4.2,3.8.2.7,0,1.3,0,2.4-.2,1.2-.1,2.1-.3,2.4-.6.3-.2.6,0,1.4-.3.8-.2,1.5-.5,1.5-.9s.8-.5.8-.9-.2-2,0-3,.7-2,.9-2.7c.2-.7.8-1.4,1-2,.2-.4.7-2.2,1-3.7-.3,0-.4-.4-.4-.4l-19.3-19s-9.9-10.3-10.4-10.8-.2-1-.2-1l.8-.9s.6-.7,1-1,2-2.5,2-2.5c0,0,8.2-8.2,8.6-8.5s2.7-3.3,3.3-3.9c.6-.6,1.2-1.6,1.4-1.9.2-.3,4.1-4.4,4.1-4.4,0,0,2.2-2.4,2.5-2.6s.2-1,.3-1.4c.2-.5.4-.7.4-.7,0,0,5-5.4,5.2-5.8.2-.5.4-1,.6-1.4.2-.5,3.3-3.9,3.3-3.9l10.6-11.7s4.8-5.3,5.6-6,1.4-.6,1.4-.6c0,0,.2-.6.3-1s1.4-2.2,1.4-2.2c0,0,3-5.1,3.4-5.7s5.1-8.5,5.1-8.5c0,0,1.9-4,2.6-5.3s3.3-4.8,4-5.4c.7-.6.8-1.2,1-1.6.2-.3.1-2.1.3-3.2,0,0-1.5-.3-1.6-.3h0Z" />
  <path class="cls-1" d="M390.7,526.4l-3.6,3.8s-1.1.5-1.6.6-2.6,1.1-3.1,1.4-3.2,1.7-3.8,2.1-3.6,2.9-4,3.4-1.2,1.5-1.4,2.2-.5,1.5-.2,1.9.8,1.1.7,1.4-1.2,1.7-1.7,1.7-2.2,0-2.9.2-1,.7-1.3.7h-1.8s-.5,0-.6.5-.4,3.5-.4,4.1.8,2.5.8,2.8.4,2,.7,2.5.5,1.2.6,1.5.7,1.7,1.6,2.2,2,1,2.3,1.4,1.2.8,1.4,1.2.6.7,1.4,1,1.3.6,2.1,1.1,2,1.4,2.2,1.7.7,1,.9.9.7,0,.9-.4,3.3-4.7,3.4-5,2.7-5.5,2.7-5.9.2-4.3.1-4.9,0-3.5,0-3.5c0,0,.6-.6.6-1.1s-.6-.9-.5-1.2,1.6-2,2-2.4,4.2-3.9,4.2-3.9l2.2-2s.8-.7.4-1.6-1.6-3.8-1.8-4.5-.2-1.7-.2-1.9-.2-.7-.5-.9-.6-.6-.7-.9-.5-.5-.7-.2-.5.5-.5.5v-.5Z" />
  <path class="cls-1" d="M502.6,642.1c.2-.3.3-.8.3-.8,0,0,.4-1.6.7-2s1.3-1.9,1.8-2.7,2.3-4.6,2.9-5.1,2.7-3.3,2.8-4,1-4.5,1.2-5,1.4-4.2,1.4-4.5v-5.8c0-.3-.3-6.8-.3-6.8,0,0,.4-2.9.3-3.5s2.4-4.7,2.5-5.2,1.8-3,1.7-3.7-6-1.3-6-1.3c0,0-1.9.3-2.8-.3s-5.2-4.3-5.5-4.7-2.5-2.7-2.8-3-4.6-4.4-4.9-4.6-7.1-6.9-7.1-6.9l-6.5-7.3s-1.6-2.4-2-3-1.7-3.7-1.9-4.1-1.2-1.7-1-2.3,1.3-4,1.3-5.3-.3-2.2-1.3-3-5.7-4.4-6.9-4.5-4-.7-6-.6-5.8,1.2-5.8,1.2c0,0-4.3,1.9-4.9,2.2s-2.6.8-3.3.9-2.6.9-3,1-.8.3-.8.7,0,1.6-.8,2.5-2.1,2.9-2.6,3.3-1,1.6-2.5,1.6h-8.5s-.7,0-1.4.5-1.4,1.9-2.5,2.1-1.9.3-3.1,1-3.9,2.8-3.9,2.8l-4,3-1.4,1s-.7.4-.5.6,2.4,2.2,2.5,2.5.3,1.4.6,1.9,2.5,3.9,2.7,4.2.6,1.4,1,1.9,2.5,3.2,2.7,3.3.9.2,1.2.4,1.2.7,1.3,1,0,1.1-.2,1.1-.8,0-1,.3-.6.4-.7,1.1-.8,1.4-1.1,1.7-3.5,3.4-3.5,3.4l-.7.9s-.8.6,0,.8,3.8,1,4.9,1.5,5.3,2,5.8,2.4,1,.4,2.3.4,7,0,7,0c0,0,1-.2,1.2,0s1.5,2.2,1.6,2.5,2.2,3.8,2.7,4.6,3.1,4,3.7,4.5,2.1,1.4,2.8,1.6,3.1,3.1,3.1,3.1l4.1,3.6s3.2,2.4,3.8,2.7,1.3.5,1.6,1,1.5,2.3,2.1,3.9,2.1,4.6,2.7,5.5,2.9,4.4,4.9,5.6,4.6,3.1,4.9,3.4.8.8,1.1.9,2.8.4,3.8.4,4.7.5,5.9.7,3.9.5,4.7,1,2.7,3.3,2.7,3.3l1.8,2.5s.5.8.7.6c0,0,2.1-3.7,2.4-4v-.5Z" />
  <rect class="cls-1" x="-.5" y="0" width="812.6" height="1000.8" />
  <path class="cls-1" d="M337.1,814.3c-.3.2-.4.9,0,1.3s3.5,4.4,3.8,5.5,1.6,3.2,1.6,3.2v2.2s3.2,1.5,4.6,2.4,4.1,4.7,4.4,5.4,3,4.6,4.3,4.7,4.4-.2,5.4-1c-.1-.8-.8-1.3-.8-1.3,0,0-10.4-14.4-10.9-15.4s-4.4-7.4-4.4-7.4c0,0-.5-.4-1.9-.4s-4.8,0-6,.9h-.1Z" />
  <polyline class="cls-2" points="301 88.7 307.5 91.1 311.8 93.5 316.6 97.1 320.4 99.5 323.3 100.9 330.5 105 333.6 105.7 338.2 106.9 340.1 106.9 344.2 106.5 345.4 106.7 347.3 106.9 354.5 107.2 357.6 107.2 359.1 107.2 360 107.4 363.2 107.7 369.2 107.9 370.6 107.9 371.8 107.9 373.5 107.9 376.6 107.7 380 107.7 382.4 107.9 384.3 108.6 385.7 108.9 387.2 108.6 388.4 107.7 389.3 106.9 391.2 105.7 392.7 104.3 394.6 102.9 396 100.9 398 100 398.9 99.5 401.1 99 401.8 98.8 403 98.8 404.9 98.5 406.4 98.1 408 97.3 411.6 97.3 414.8 97.1 417.6 97.3 420.8 97.3 422.4 97.3 424.1 97.1 424.8 96.9 425.3 96.4 426.8 95.4 428 94.9 428.9 93.7 430.4 92.5 431.8 92.3 432.8 91.8 434.9 91.8 436.4 92.3 438.3 92.8 440.2 93.7 440.7 94.9 441.6 96.1 442.1 97.3 443.1 98.1 445 98.5 447.2 99.3 449.1 99.7 450.5 99.7 454.4 100.2 458.4 99.5 461.1 99 464.4 99 467.1 99.7 468 100.2 468.3 102.6 468.5 104.3 468.3 107.4 468.3 109.3 468.3 111.7 468.3 115.3 469 118.9 469.7 121.1 472.4 125.9 474 128.8 475.5 131.2 478.6 134.1 480.8 135.7 484.1 136.9 484.8 137.2 485.1 136.5 487 133.8 488 130.7 489.2 127.6 490.1 124.7 491.3 122.8 492 121.3 494.4 120.6 495.6 120.6 497.1 120.6 498.5 120.9 501.2 122.5 503.1 123.5 503.8 124.2 504.3 125.2 505.7 127.6 507.9 130.5 509.6 134.8 511.7 139.6 513.4 143.2 515.8 145.3 521.6 147.3 524 148.2 526.6 148.5 529 148 530.7 146.8 532.6 140.5 533.8 137.4 535.7 133.8 536.4 131.7 537.2 129.5 537.4 128.8 538.1 127.8 539.3 125.9 539.8 125.4 541 125.4 542.4 125.4 544.8 125.7 547.7 125.9 549.6 126.6 552.8 127.6 554.7 128.5 556.8 129.7 560.4 132.4 564 135.5 567.9 141.3 574.6 150.6 577.5 155.7 580.4 161.4 582.3 165.5 584 166.7 586.1 167.4 589 169.3 589.7 170.5 590.4 171.3 590.4 172.2 590.4 173.4 590.4 175.3 590.4 177 590.4 178 590.7 178.7 591.9 180.4 594 182.1 595.7 183.7 597.6 185.4 600 187.6 602.2 188.8 604.4 190 606.3 191 608.2 191.7 608.9 191.7 611.6 191.7 613 191.9 614.4 191.9 615.9 191.9 618.5 192.2 620.2 192.6 622.1 193.4 624.5 194.8 626.2 195.8 628.4 197.4 629.6 198.4 630 199.4 631.2 201.8 632.7 204.2 633.6 206.1 635.3 208.5 637 211.6 638 213 638.7 213.8 639.6 215.4 640.1 216.2 641.1 217.1 642 217.8 645.2 220.5 646.1 221.7 646.8 222.4 647.6 223.4 648.3 224.6 649.5 228.4 650.4 231 652.1 234.6 652.8 236.1 653.8 237.8 654.8 240.6 656 243.8 656.2 244.5 656 245.2 655.7 247.8 654 252.4 653.1 255.3 652.8 256.7 652.8 258.9 651.9 262.5 651.2 264.9 650 268 649.5 270.4 649.5 271.8 649 274.2 648.8 278.1 648.5 280.2 648.3 283.6 648 286 647.6 288.6 647.6 290.8 647.8 293.9 647.8 297.8 647.8 299.4 648.3 301.4 648.8 302.1 649.2 302.6 650 304 650.2 305 650.4 305.7 650.4 307.1 647.3 311.9 644.4 317.2 639.6 326.8 638.4 329.2 637 331.8 637.2 334.2 638.2 336.4 639.4 338.3 641.1 339.8 642.3 341.2 643.5 344.3 643.5 345.3 643.5 346.2 643.2 348.4 643 350.1 643.2 351 644.4 352 645.6 352.7 647.1 354.4 647.8 354.9 649 355.4 651.2 356.1 653.3 356.6 655.2 356.8 656.7 357 657.4 357 659.3 357.8 660.5 358.2 662.2 359.4 663.6 360.4 664.6 361.4 666 362.6 668.2 364.2 670.6 367.1 672.8 369.3 675.9 372.6 678.3 375.5 680.2 377.7 681.4 379.4 682.8 381.5 683.8 383 685 384.9 686 386.1 686.7 387.5 687.4 389 688.4 390.4 689.3 391.6 689.6 395 689.6 396.9 689.8 399 690 400.2 690.5 402.9 690.5 404.3 691 406 691.5 407.2 692.4 408.9 693.2 410.8 694.1 413.2 694.8 414.4 696 417.8 696.5 420.2 697 422.3 698.4 425 699.6 426.2 700.6 428.3 701.1 430 701.6 433.1 701.6 434.6 701.3 435.8 700.6 436.7 699.6 437.9 698.7 439.4 698.4 440.1 698.7 442.7 698.9 445.1 700.1 447.8 702 449.9 704.7 454 706.6 456.9 708 459.3 709 461.9 709.5 463.8 709.2 465 708.3 466.2 707.1 467.7 706.8 468.4 705.9 470.3 705.6 471 705.2 474.6 704.4 478.7 703.7 482.6 702.8 485 701.6 487.8 700.6 490 699.9 491.2 699.4 493.1 699.2 494.1 698.9 497.7 698.7 499.1 698.4 501 698 503.9 697 507 696.8 509.9 696.8 512.6 696.8 514.2 696.8 515.7 697 516.9 697.2 518.6 698 520.7 698.2 522.2 698.9 524.3 699.6 525.8 700.4 527.7 700.8 529.1 701.8 530.3 702.8 531.8 703.7 533.4 704 534.6 704 535.4 703.7 536.3 703.5 537.3 703 538.5 702.5 539.7 701.8 541.4 700.8 542.8 700.6 543.8 700.4 544.5 700.4 546.4 700.1 548.3 700.1 550.2 699.4 552.4 698.2 556.5 697.7 559.1 697.5 563.2 697 566.8 697 569 697.2 570.4 698 571.6 698.7 572.8 699.9 574.5 700.4 575.7 700.8 578.1 701.1 579.8 701.3 582.2 701.6 584.1 701.6 586.2 701.3 588.2 701.3 589.8 702.3 593 702.8 594.2 703 594.9 703.2 595.1 703.5 595.6 704 595.6 704.4 595.6 705.6 595.8 707.6 596.1 710.9 596.6 714 597 716.2 597.8 717.4 598.2 720.5 599.9 723.2 601.4 726 602.8 728.2 604.2 728.9 604.7 729.6 605.2 730.1 605.4 731.3 605.9 734.7 606.6 738.3 608.8 741.9 611.2 746 613.6 749.6 615.5 752 617 755.1 618.9 757 620.3 758.2 621.8 759.2 623 759.9 623.9 760.1 625.1 760.6 626.6 760.9 627.5 761.3 628 761.6 628.2 763.5 629.2 765.9 630.4 767.3 632.3 768.5 633.5 769.7 635.4 771.2 636.9 774.1 641.2 776.7 644.1 779.6 647.7 783.4 651.5 785.1 653.5 788.5 657.3 793 663.3 794.5 667.6 794.9 670.7 794.9 673.6 794.9 675.3 794.9 677.2 794.7 680.8 794.9 683 795.2 685.9 795.7 687.8 795.7 689.7 796.1 691.4 796.6 694.3 797.1 698.1 797.6 700.5 798.8 705.8 799.3 708.7 800.2 712.5 800.9 716.1 801.4 718 801.4 719 801.4 720.9 801.7 722.8 801.9 725.7 801.7 727.4 801.4 728.6 800.9 730.5 799.7 732.7 799.3 734.6 799 737.2 798.5 741.8 798.8 743.2 798.8 745.4 798.5 746.3 798.1 747.5 797.3 749.5 796.9 752.3 794.9 754.7 792.8 757.6 790.6 760.7 788 765.1 786.8 767.2 784.6 771.3 782.2 774.7 780.3 778 777.9 782.3 775.3 785.5 773.8 788.1 771.7 791.7 770.9 793.1 768.8 797 767.6 800.1 766.4 805.9 764.5 812.1 760.4 821 758 824.8 754.1 831.3 753.9 832.7 753.9 834.9 754.4 837.5 754.6 841.1 754.6 844.7 754.9 851.9 754.4 860.6 753.9 862.7 751.7 870.2 749.1 878.8 746 887.2 742.6 893.2 738.8 899.7 737.3 899.5 734.4 899.2 733.5 899.2 730.8 898.7 728 898.5 724.4 897.8 722.9 897.3 721.7 897.1 720.8 896.6 719.6 895.6 716.2 894.4 713.8 893.9 709.2 893 707.3 892.7 704.7 892.5 703.2 892.5 701.3 892.7 699.6 893 696.3 893.5 694.6 893.7 692.7 893.9 690.8 894.2 689.8 894.2 688.4 894.2 687.2 893.9 685.2 893.5 684.5 893.2 683.1 893.5 680.9 893.9 679.7 893.9 676.8 893.9 674 893.7 672.3 893.7 669.2 893.9 668.4 893.9 665.8 894.7 663.9 895.1 662.9 895.4 662 896.1 659.6 897.1 656.7 898.3 654.3 899.2 652.8 899.7 651.6 900.2 650.9 900.9 650.2 901.6 649.5 902.3 648.5 903.3 648.3 903.8 648 905 648 905.7 648 906.9 648.3 908.3 648 910.5 647.6 912.2 647.3 913.6 646.6 916.3 645.6 919.9 645.4 921.1 645.2 922 644.4 924.2 644 925.4 644 926.6 644 927.8 644 929 643.7 930.7 643.7 931.6 643.5 933.8 643 936.7 642.8 937.6 642 941.5 641.6 946 641.3 947.7 640.8 949.9 639.9 952.7 639.4 954.2 638.7 955.6 638 957.3 637.5 958 636.5 958.7 636 959.5 635.6 960.4 635.1 961.1 634.8 961.1 634.6 961.4 634.4 961.4 633.9 961.1 632.9 961.1 632 960.9 631.2 960.7 630 960.2 629.3 960.2 628.4 960.4 627.2 960.9 626.7 960.9 624.5 960.7 623.3 960.7 621.4 960.7 620.7 960.4 619.5 960.4 617.8 960.4 616.8 960.4 615.6 960.4 614.4 960.4 613.5 960.4 612.3 960.2 611.3 959.7 608.4 959 608 958.7 606.8 958.7 605.6 958.7 604.8 959 603.9 959 602.9 959.2 600.8 959.5 598.4 959.7 596.7 959.7 595.2 959.7 593.6 959.7 592.6 959.7 592.1 959.7 591.4 959.5 590.4 959 589.5 959 587.8 958.5 587.3 958.5 586.8 958 586.6 957.8 586.6 957.3 586.4 956.8 585.6 955.9 584.9 955.1 583.7 954.2 582.8 953.2 582 952.3 582 951.8 581.8 950.1 581.8 949.1 581.3 948.7 579.9 948.4 578.2 948.2 577.5 947.2 576.8 946.7 575.1 945.5 573.9 944.3 572.2 943.4 570.8 942.4 569.1 940.7 568.6 939.5 568.4 938.3 567.9 937.6 566.9 936.7 566.2 935.7 565.2 934.3 564.5 933.3 563.3 931.6 563.1 930.9 562.4 929.5 561.9 928.5 561.4 927.3 560.9 926.3 560.7 925.9 559.7 925.4 559.2 925.1 559 924.7 558 923.9 557.1 922.5 556.6 921.8 555.9 921.1 555.2 920.3 554.7 919.9 554.2 919.1 553.5 917.9 553.2 917 553.2 916.7 553.2 916.3 553 915.5 553 914.8 552.5 914.1 552.3 913.9 551.8 913.4 551.3 912.7 550.4 911.5 549.2 909.8 548.9 909.3 548.4 908.3 547.2 906.9 546.5 905.9 545.8 904.3 545.3 902.8 544.8 901.9 544.6 900.7 544.4 899.7 544.4 899 543.6 896.6 543.4 895.6 543.2 894.9 542.4 894.2 542 893.7 541.5 893.7 540.8 893.5 537.6 893 534.5 892.7 530.7 892 527.3 891.3 523 890.6 520.1 889.6 518.4 888.9 517.2 888.2 514.8 887 511.7 886 509.8 885.5 507.2 885.1 505.7 884.8 503.8 884.1 501.4 883.1 499.5 881.9 496.6 880.3 494.2 878.6 491.6 875.9 489.6 873.1 488 869.9 483.2 864.7 481.5 863.2 479.1 861.3 477.9 860.3 476.7 858.9 476.2 858.2 475 856 473.8 852.9 472.4 850 470.9 847.6 468.3 844.7 465.4 842.6 462 840.9 458.2 839 453.4 836.8 451 836.1 448.6 835.9 447.4 835.9 446.2 835.9 443.6 835.6 442.4 834.9 440.7 833.9 439 833.2 437.1 833.2 434.9 833.2 433.5 833.2 430.8 832.3 429.6 831.5 428.2 830.3 426.8 828.2 425.3 826.5 424.4 824.6 423.4 823.1 422 821.2 420.5 819.1 418.8 816.9 416.9 815 413.1 811.9 410.4 809.9 408.3 809 404.2 808 400.8 807.3 397.2 807.3 394.8 806.8 391.5 806.8 390.5 806.8 386 807.3 384.5 807.8 382.8 808.5 380 809.9 376.1 810.9 373.2 811.6 370.1 811.6 368 811.6 362.2 810.2 361.5 809.7 359.8 809.5 357.6 809.5 353.8 810.7 351.6 811.6 350 811.9 347.6 812.6 345.6 812.6 343.2 812.8 341.6 813.5 339.9 814 338.2 814.7 337 814.7 333.9 815.2 332 815.5 329.8 815.9 328.1 816.7 326 817.1 324.5 817.6 319.7 818.3 314.4 817.4 312.8 817.1 310.1 816.7 304.8 814.5 302.4 812.1 299.3 809.5 297.9 807.1 294.8 802.7 292.4 800.1 289.7 797 287.3 794.3 286.8 793.4 285.4 791.9 283.2 790.5 280.1 788.3 277.7 786.9 274.6 784.3 271 780.2 266.4 777.1 265.7 776.6 264.3 776.1 262.6 775.6 261.6 775.1 260.2 774.4 258.7 773.2 257.1 772.3 254.2 770.1 252.3 767.9 249.6 766.3 247.5 765.8 246.3 765.3 244.6 765.1 243.6 764.8 242.2 763.4 241.5 762.4 240.7 761.2 240.3 760.3 239.1 759.3 237.9 758.3 235 755.2 234 753.8 232.3 751.1 231.1 748.3 230.2 746.1 229.5 743.7 227.1 739.4 221.3 731.7 217 725.9 214.6 722.1 212.9 719.2 209.8 712.7 206.4 706.3 202.6 698.6 199.5 696.2 197.3 694.3 194.9 692.1 193 690.4 191.8 689.2 191.3 688 190.1 686.3 189.4 684.2 188.2 682.3 186.7 681.3 184.8 678.4 184.3 675.8 184.1 674.8 183.6 673.6 183.6 671.7 184.1 667.9 185.8 660.2 186.5 656.8 186.3 654.2 185.8 652.3 184.3 649.1 182.2 645.1 181.7 643.1 181.2 640 180.7 634.7 179.8 629.9 178.3 623.9 176.2 615.5 175.5 613.4 174.7 611.7 172.1 606.4 169 599.4 167.3 594.4 167.1 590.8 167.1 586.5 167.8 583.1 168.7 581.9 171.4 580.5 173.1 580.2 177.4 580.2 180.5 579.8 183.6 579.8 184.6 579.5 185.1 577.8 185.3 575.9 185.3 573.5 185.5 571.6 185.3 570.4 184.3 567.8 182.9 564.6 181.9 563 180.5 559.1 178.6 555.5 176.9 551.9 175.2 547.4 174.3 545.2 173.1 541.8 172.8 539.2 174.5 532 175.7 528.4 176.2 525.3 176.4 523.1 175.7 522.4 172.3 521 167.8 519.5 162.3 519.8 160.3 520 158.2 520 153.9 518.3 153.1 517.4 150 513.5 147.4 511.1 142.3 505.6 141.4 504.4 141.4 501.8 140.7 497.4 138.5 493.6 136.6 489 135.4 486.9 134.4 485.4 133.5 484.5 131.3 484 129.6 484 127.9 484 126.3 484.2 123.1 484.2 121.5 484 119.3 483 118.6 481.6 118.6 478 117.9 472.7 117.1 469.4 115.5 462.9 114 457.1 112.1 453.3 109.5 450.4 106.8 448.5 105.6 447.5 104.7 447 103.2 446.6 100.8 446.1 98.7 445.6 97 444.2 95.5 443.2 94.8 442 94.1 439.8 92.2 437 90 434.8 87.6 431.2 82.6 425.4 81.6 421.4 80.9 417.8 77.8 408.2 76.6 406 75.6 403.4 74.7 401.4 72.3 398.8 71.5 397.4 71.3 396.4 71.3 394.2 70.6 390.4 70.3 387.5 70.1 385.4 69.9 381.5 69.6 380.1 68.9 377.9 67 376.5 66.3 375.5 65.1 374.3 64.6 372.6 64.6 370.5 65.5 367.4 66.3 365.9 67.7 361.1 68.2 357.5 68.9 350.3 69.6 346.7 70.6 344.3 73.9 340.7 76.6 338.6 83.3 333.5 85.9 332.3 87.9 331.1 89.8 329.4 90 328.2 90 326.6 88.8 325.4 86.4 323 84.7 321 84 319.4 84 317.9 84 314.6 83.5 311.9 82.8 309.8 79.7 302.6 78.3 300.4 77.1 297.8 76.6 295.6 75.6 293.4 74.9 291.8 74.4 290.3 74.2 288.9 72 286.2 69.9 283.8 67.7 280.5 66.7 277.1 66.5 275.2 66.7 273.5 67.2 271.6 66.7 267.3 65.8 263.2 65.1 259.8 65.1 258.2 66.3 256 67.9 255 70.8 254.3 74.4 253.1 76.8 251 77.3 248.8 77.3 243.3 76.1 239 75.1 236.3 74.7 234.2" pointer-events="none" style="pointer-events:none" />
  <polyline class="cls-2" points="74.7 234.2 74.2 230.8 73.5 228.6 72 225.8 70.8 223.1 67 218.3 63.9 214 61.2 212.1 57.9 208.7 55 206.8 50.4 203 46.3 198.9 44.7 195.8 43.2 193.6 41.1 191.9 37.9 191 33.6 190.2 31.5 190 28.6 189 23.8 186.6 20.9 184.7 19.5 181.8 16.8 174.1 17.1 171.5 18.3 167.4 18.5 164.3 18.3 161.2 17.8 158.3 17.1 155.9 15.4 152.8 13.5 149.7 13.2 145.1 14.7 136.2 15.4 134.3 18.3 131.4 20.9 129 23.3 127.6 25.7 126.4 28.3 124.9 30 124 30.7 121.3 31.5 118.9 32.7 114.9 33.9 112.2 34.6 109.6 35.1 107.7 35.5 106.9 37.2 106.2 39.1 105 40.3 103.3 41.3 100.7 41.5 99.3 41.5 96.6 41.1 94.9 41.1 93.5 41.3 92.1 45.1 90.1 48.3 89.2 50.7 87.7 51.6 86.8 53.5 84.1 55 82.9 56.2 82.2 58.3 80.8 59.3 80.8 61.7 81.5 63.4 82.7 64.6 83.2 65.5 83.7 67.7 84.9 69.9 85.6 73.7 86.8 77.1 87.7 83.8 89.4 87.1 90.1 91.7 92.1 93.9 93.5 97.2 95.2 102.3 95.4 104.2 94.9 105.6 93.7 106.6 92.5 107.5 90.9 108.7 89.4 109.7 88 110.4 86.8 111.4 86.3 113.1 86.3 115.5 86.8 117.9 88.2 120 88.9 121.7 88.9 124.8 88.9 127.2 88.9 131.1 88 134.2 87.3 137.8 86.3 139.2 86.1 141.4 86.1 142.8 86.5 144 87 146.4 88 147.9 88 149.5 87.3 150.5 86.1 153.1 83.4 154.3 82.9 157.7 82.5 161.8 82.7 164.4 82.7 168.3 82.5 172.8 82.2 177.9 82.7 181.5 82.7 185.8 83.4 198 85.1 201.9 86.1 204.5 86.5 206.7 86.5 208.3 86.5 209.8 86.1 211.9 85.6 213.9 85.6 215.8 85.8 218.2 86.3 219.9 87 222.7 88.7 224.4 89.4 225.4 89.4 227.5 88.5 233.8 86.1 253.2 82 257.8 81 262.1 80.1 266.7 80.1 270.7 80.1 274.1 80.5 277.5 81.7 280.6 82.5 281.8 82.7 288 84.6 294 86.3 298.4 87.5 301 88.7" pointer-events="none" style="pointer-events:none" />
</svg>